<svg width="74" height="62" viewBox="0 0 74 62" fill="none" xmlns="http://www.w3.org/2000/svg">
<g clip-path="url(#clip0_248_340)">
<path d="M26.9442 8.32056L62.9128 29.6966L48.7316 55.2436L9.92676 31.7821L26.9442 8.32056Z" fill="#D8BFC0" stroke="#D6BFC0"/>
<path d="M66.6084 48.3547C62.6624 55.6083 54.4061 58.6762 48.1674 55.2073C41.9287 51.7381 40.0699 43.0457 44.0159 35.7921C47.9616 28.5383 56.2179 25.4703 62.4569 28.9393C68.6956 32.4085 70.5543 41.101 66.6084 48.3547Z" fill="#5D3136"/>
<path d="M11.2962 33.0492C17.535 36.5183 25.7912 33.4502 29.7371 26.1965C33.683 18.9428 31.8243 10.2503 25.5855 6.78128C19.3468 3.31223 11.0905 6.38028 7.14464 13.634C3.19875 20.8877 5.05747 29.5802 11.2962 33.0492Z" fill="#5D3136"/>
</g>
<defs>
<clipPath id="clip0_248_340">
<rect width="74" height="61" fill="white" transform="translate(0 0.5)"/>
</clipPath>
</defs>
</svg>
