<svg width="74" height="61" viewBox="0 0 74 61" fill="none" xmlns="http://www.w3.org/2000/svg">
<g clip-path="url(#clip0_120_96)">
<path d="M26.9443 7.82056L62.9129 29.1966L48.7318 54.7436L29.3293 43.0129L9.92688 31.2821L26.9443 7.82056Z" fill="#606060"/>
<path d="M66.6082 47.8547C62.6623 55.1083 54.406 58.1762 48.1673 54.7073C41.9286 51.2381 40.0698 42.5457 44.0158 35.2921C47.9615 28.0383 56.2178 24.9703 62.4568 28.4393C68.6954 31.9085 70.5542 40.601 66.6082 47.8547Z" fill="#252525"/>
<path d="M11.2962 32.5492C17.535 36.0183 25.7912 32.9502 29.7371 25.6965C33.683 18.4428 31.8243 9.75034 25.5855 6.28128C19.3468 2.81223 11.0905 5.88028 7.14464 13.134C3.19875 20.3877 5.05747 29.0802 11.2962 32.5492Z" fill="#252525"/>
</g>
<defs>
<clipPath id="clip0_120_96">
<rect width="74" height="61" fill="white"/>
</clipPath>
</defs>
</svg>
