<svg width="62" height="63" viewBox="0 0 62 63" fill="none" xmlns="http://www.w3.org/2000/svg">
<g clip-path="url(#clip0_120_109)">
<path d="M38.3367 57.6295L8.06001 39.7623L13.0364 31.2108L6.82001 23.341L40.7133 7.22949L56.8333 18.9L55.849 19.427L56.11 19.5197L54.1467 51.2262L44.5144 46.6714L38.3367 57.6295Z" fill="#606060"/>
<path d="M53.3886 52.5842C50.2258 58.3317 43.6081 60.7626 38.6076 58.014C33.6071 55.2651 32.1172 48.3774 35.2799 42.63C38.4427 36.8823 45.0604 34.4513 50.0609 37.2C55.0614 39.9489 56.5512 46.8365 53.3886 52.5842Z" fill="#252525"/>
<path d="M56.0753 20.361C52.9124 26.1086 46.2948 28.5396 41.2943 25.7909C36.2937 23.0421 34.8039 16.1545 37.9667 10.4069C41.1293 4.65929 47.747 2.22828 52.7477 4.97704C57.7482 7.7258 59.2381 14.6135 56.0753 20.361Z" fill="#252525"/>
<path d="M9.05419 40.4565C14.0547 43.2052 20.6724 40.7742 23.8352 35.0266C26.9979 29.279 25.5081 22.3914 20.5075 19.6426C15.507 16.8938 8.88933 19.3249 5.72657 25.0725C2.56382 30.82 4.05364 37.7077 9.05419 40.4565Z" fill="#252525"/>
</g>
<defs>
<clipPath id="clip0_120_109">
<rect width="62" height="63" fill="white"/>
</clipPath>
</defs>
</svg>
