<svg width="62" height="63" viewBox="0 0 62 63" fill="none" xmlns="http://www.w3.org/2000/svg">
<g clip-path="url(#clip0_248_346)">
<path d="M38.3367 57.6295L8.06007 39.7623L13.0365 31.2108L6.82007 23.341L40.7134 7.22949L56.8334 18.9L55.849 19.427L56.1101 19.5197L54.1467 51.2262L44.5144 46.6714L38.3367 57.6295Z" fill="#D8BFC0"/>
<path d="M38.3367 57.6295L8.06007 39.7623L19.8401 19.5197L49.8067 37.2836L38.3367 57.6295ZM56.1101 19.5197L54.1467 51.2262L34.9267 42.1377L37.2001 12.8065L56.1101 19.5197ZM6.82007 23.341L40.7134 7.22949L56.8334 18.9L19.2201 39.0393L6.82007 23.341Z" stroke="#D6BFC0"/>
<path d="M53.3887 52.5842C50.2258 58.3317 43.6082 60.7626 38.6077 58.014C33.6072 55.2651 32.1173 48.3774 35.2799 42.63C38.4427 36.8823 45.0604 34.4513 50.0609 37.2C55.0614 39.9489 56.5513 46.8365 53.3887 52.5842Z" fill="#5D3136"/>
<path d="M56.0754 20.361C52.9126 26.1086 46.2949 28.5396 41.2944 25.7909C36.2939 23.0421 34.804 16.1545 37.9668 10.4069C41.1295 4.65929 47.7471 2.22828 52.7478 4.97704C57.7484 7.7258 59.2382 14.6135 56.0754 20.361Z" fill="#5D3136"/>
<path d="M9.05407 40.4565C14.0546 43.2052 20.6723 40.7742 23.835 35.0266C26.9978 29.279 25.508 22.3914 20.5074 19.6426C15.5069 16.8938 8.88921 19.3249 5.72645 25.0725C2.56369 30.82 4.05352 37.7077 9.05407 40.4565Z" fill="#5D3136"/>
</g>
<defs>
<clipPath id="clip0_248_346">
<rect width="62" height="63" fill="white"/>
</clipPath>
</defs>
</svg>
