<svg width="71" height="74" viewBox="0 0 71 74" fill="none" xmlns="http://www.w3.org/2000/svg">
<g clip-path="url(#clip0_124_128)">
<path d="M36.2822 68.8966L7.62789 51.9178L12.2882 43.8768L6.45453 36.6075L19.8526 9.22552L28.0863 12.6037L31.9793 4.22021L61.2204 15.1141L57.7339 24.0055L66.208 27.9709L50.9518 62.8117L42.0975 58.539L36.2822 68.8966Z" fill="#606060"/>
<path d="M50.5275 64.1021C47.5342 69.5637 41.2711 71.8738 36.5386 69.2619C31.806 66.6497 30.396 60.1045 33.3893 54.6428C36.3827 49.181 42.6455 46.8709 47.3783 49.4829C52.1108 52.095 53.5209 58.6402 50.5275 64.1021Z" fill="#252525"/>
<path d="M65.3926 30.1445C62.3994 35.6062 56.1364 37.9163 51.4036 35.3043C46.6711 32.6921 45.261 26.147 48.2544 20.6853C51.2477 15.2234 57.5108 12.9133 62.2433 15.5254C66.9759 18.1375 68.3859 24.6827 65.3926 30.1445Z" fill="#252525"/>
<path d="M36.4451 19.3487C33.4517 24.8104 27.1887 27.1205 22.4561 24.5085C17.7236 21.8964 16.3136 15.3513 19.3068 9.88947C22.3 4.42767 28.5631 2.11753 33.2958 4.72961C38.0284 7.34169 39.4384 13.8869 36.4451 19.3487Z" fill="#252525"/>
<path d="M8.56885 52.5775C13.3014 55.1896 19.5645 52.8794 22.5578 47.4176C25.551 41.9558 24.1411 35.4107 19.4085 32.7986C14.6759 30.1865 8.41283 32.4966 5.41955 37.9584C2.42627 43.4202 3.83626 49.9654 8.56885 52.5775Z" fill="#252525"/>
</g>
<defs>
<clipPath id="clip0_124_128">
<rect width="71" height="74" fill="white"/>
</clipPath>
</defs>
</svg>
