<svg width="72" height="74" viewBox="0 0 72 74" fill="none" xmlns="http://www.w3.org/2000/svg">
<g clip-path="url(#clip0_248_354)">
<path d="M36.7822 68.8966L8.12795 51.9178L12.7883 43.8768L6.95459 36.6075L20.3527 9.22552L28.5863 12.6037L32.4794 4.22021L61.7204 15.1141L58.234 24.0055L66.708 27.9709L51.4518 62.8117L42.5976 58.539L36.7822 68.8966Z" fill="#D8BFC0"/>
<path d="M18.6899 51.2308L6.95459 36.6075L20.3527 9.22552L38.0538 16.4881L23.091 47.4032M36.7822 68.8966L8.12795 51.9178L19.2767 32.6818L47.6376 49.5624L36.7822 68.8966ZM51.4518 62.8117L33.5549 54.1751L49.3003 19.825L66.708 27.9709L51.4518 62.8117ZM32.4794 4.22021L61.7204 15.1141L53.4078 36.3131L23.091 24.4377L32.4794 4.22021Z" stroke="#D6BFC0"/>
<path d="M51.0275 64.1021C48.0342 69.5637 41.7711 71.8738 37.0386 69.2619C32.306 66.6497 30.896 60.1045 33.8893 54.6428C36.8827 49.181 43.1455 46.8709 47.8783 49.4829C52.6108 52.095 54.0209 58.6402 51.0275 64.1021Z" fill="#5D3136"/>
<path d="M65.8925 30.1445C62.8994 35.6062 56.6363 37.9163 51.9036 35.3043C47.171 32.6921 45.761 26.147 48.7543 20.6853C51.7477 15.2234 58.0107 12.9133 62.7433 15.5254C67.4758 18.1375 68.8859 24.6827 65.8925 30.1445Z" fill="#5D3136"/>
<path d="M36.945 19.3487C33.9517 24.8104 27.6886 27.1205 22.9561 24.5085C18.2235 21.8964 16.8135 15.3513 19.8068 9.88947C22.8 4.42767 29.063 2.11753 33.7958 4.72961C38.5283 7.34169 39.9384 13.8869 36.945 19.3487Z" fill="#5D3136"/>
<path d="M9.06885 52.5775C13.8014 55.1896 20.0645 52.8794 23.0578 47.4176C26.051 41.9558 24.6411 35.4107 19.9085 32.7986C15.1759 30.1865 8.91283 32.4966 5.91955 37.9584C2.92627 43.4202 4.33626 49.9654 9.06885 52.5775Z" fill="#5D3136"/>
</g>
<defs>
<clipPath id="clip0_248_354">
<rect width="71" height="74" fill="white" transform="translate(0.5)"/>
</clipPath>
</defs>
</svg>
